# xmcd
#
# Track frame offsets:
#	150
#	11400
#	27966
#	47849
#	59879
#	74838
#	93440
#	109215
#	124391
#	141536
#
# Disc length: 2083 seconds
# Revision: 1
# Processed by: cddbd v1.5.2PL0 Copyright (c) Steve Scherf et al.
# Submitted via: dBpowerAMP V12.0
#
DISCID=9f08210a
DTITLE=Rodeo and Juliet - The Adventures Of Rodeo and Juliet
DYEAR=2011
DGENRE=Country
TTITLE0=As Far As I'm Concerned 
TTITLE1=Adventures Of Rodeo And Juliet
TTITLE2=Mil Besos
TTITLE3=The Honey-Do List
TTITLE4=All The Men In My Life
TTITLE5=I've Fallen
TTITLE6=Dream A Little Dream Of Me
TTITLE7=Pennies Nickels And Dimes
TTITLE8=Dear Someone
TTITLE9=Sit And Watch The Sun Go Down
EXTD=
EXTT0=
EXTT1=
EXTT2=
EXTT3=
EXTT4=
EXTT5=
EXTT6=
EXTT7=
EXTT8=
EXTT9=
PLAYORDER=
